<?xml version="1.0" encoding="UTF-8" standalone="no"?>
<!DOCTYPE svg PUBLIC "-//W3C//DTD SVG 1.1//EN"
 "http://www.w3.org/Graphics/SVG/1.1/DTD/svg11.dtd">
<!-- Generated by graphviz version 2.43.0 (0)
 -->
<!-- Title: G Pages: 1 -->
<svg width="2660pt" height="330pt"
 viewBox="0.00 0.00 2660.00 330.00" xmlns="http://www.w3.org/2000/svg" xmlns:xlink="http://www.w3.org/1999/xlink">
<g id="graph0" class="graph" transform="scale(1 1) rotate(0) translate(4 326)">
<title>G</title>
<polygon fill="white" stroke="transparent" points="-4,4 -4,-326 2656,-326 2656,4 -4,4"/>
<!-- n1 -->
<g id="node1" class="node">
<title>n1</title>
<polygon fill="none" stroke="black" points="1431.5,-245.5 1431.5,-321.5 1543.5,-321.5 1543.5,-245.5 1431.5,-245.5"/>
<text text-anchor="middle" x="1487.5" y="-309.5" font-family="Times,serif" font-size="10.00">Ensayo Filosofico</text>
<polyline fill="none" stroke="black" points="1431.5,-302.5 1543.5,-302.5 "/>
<text text-anchor="middle" x="1487.5" y="-290.5" font-family="Times,serif" font-size="10.00">Filosofia</text>
<polyline fill="none" stroke="black" points="1431.5,-283.5 1543.5,-283.5 "/>
<text text-anchor="middle" x="1487.5" y="-271.5" font-family="Times,serif" font-size="10.00">Novela Corta</text>
<polyline fill="none" stroke="black" points="1431.5,-264.5 1543.5,-264.5 "/>
<text text-anchor="middle" x="1487.5" y="-252.5" font-family="Times,serif" font-size="10.00">Novela Psicologica</text>
</g>
<!-- n2 -->
<g id="node2" class="node">
<title>n2</title>
<polygon fill="none" stroke="black" points="304,-132.5 304,-208.5 413,-208.5 413,-132.5 304,-132.5"/>
<text text-anchor="middle" x="358.5" y="-196.5" font-family="Times,serif" font-size="10.00">Aventura/Alegoria</text>
<polyline fill="none" stroke="black" points="304,-189.5 413,-189.5 "/>
<text text-anchor="middle" x="358.5" y="-177.5" font-family="Times,serif" font-size="10.00">Clasico</text>
<polyline fill="none" stroke="black" points="304,-170.5 413,-170.5 "/>
<text text-anchor="middle" x="358.5" y="-158.5" font-family="Times,serif" font-size="10.00">Clasico</text>
<polyline fill="none" stroke="black" points="304,-151.5 413,-151.5 "/>
<text text-anchor="middle" x="358.5" y="-139.5" font-family="Times,serif" font-size="10.00">Distopia</text>
</g>
<!-- n1&#45;&gt;n2 -->
<g id="edge1" class="edge">
<title>n1&#45;&gt;n2</title>
<path fill="none" stroke="black" d="M1431.13,-276.96C1241.18,-258.28 625.19,-197.72 423.26,-177.87"/>
<polygon fill="black" stroke="black" points="423.4,-174.36 413.1,-176.87 422.71,-181.33 423.4,-174.36"/>
</g>
<!-- n3 -->
<g id="node3" class="node">
<title>n3</title>
<polygon fill="none" stroke="black" points="843.5,-132.5 843.5,-208.5 947.5,-208.5 947.5,-132.5 843.5,-132.5"/>
<text text-anchor="middle" x="895.5" y="-196.5" font-family="Times,serif" font-size="10.00">Fantasia</text>
<polyline fill="none" stroke="black" points="843.5,-189.5 947.5,-189.5 "/>
<text text-anchor="middle" x="895.5" y="-177.5" font-family="Times,serif" font-size="10.00">Fantasia Juvenil</text>
<polyline fill="none" stroke="black" points="843.5,-170.5 947.5,-170.5 "/>
<text text-anchor="middle" x="895.5" y="-158.5" font-family="Times,serif" font-size="10.00">Fantasia Juvenil</text>
<polyline fill="none" stroke="black" points="843.5,-151.5 947.5,-151.5 "/>
<text text-anchor="middle" x="895.5" y="-139.5" font-family="Times,serif" font-size="10.00">Ficcion Filosofica</text>
</g>
<!-- n1&#45;&gt;n3 -->
<g id="edge2" class="edge">
<title>n1&#45;&gt;n3</title>
<path fill="none" stroke="black" d="M1431.27,-271.96C1320.19,-251.13 1073.35,-204.85 957.63,-183.15"/>
<polygon fill="black" stroke="black" points="958,-179.66 947.52,-181.25 956.71,-186.54 958,-179.66"/>
</g>
<!-- n4 -->
<g id="node4" class="node">
<title>n4</title>
<polygon fill="none" stroke="black" points="1414.5,-142 1414.5,-199 1560.5,-199 1560.5,-142 1414.5,-142"/>
<text text-anchor="middle" x="1487.5" y="-187" font-family="Times,serif" font-size="10.00">Misterio/Ficcion Historica</text>
<polyline fill="none" stroke="black" points="1414.5,-180 1560.5,-180 "/>
<text text-anchor="middle" x="1487.5" y="-168" font-family="Times,serif" font-size="10.00">Modernista</text>
<polyline fill="none" stroke="black" points="1414.5,-161 1560.5,-161 "/>
<text text-anchor="middle" x="1487.5" y="-149" font-family="Times,serif" font-size="10.00">Novela</text>
</g>
<!-- n1&#45;&gt;n4 -->
<g id="edge3" class="edge">
<title>n1&#45;&gt;n4</title>
<path fill="none" stroke="black" d="M1487.5,-245.23C1487.5,-233.66 1487.5,-220.89 1487.5,-209.29"/>
<polygon fill="black" stroke="black" points="1491,-209.02 1487.5,-199.02 1484,-209.02 1491,-209.02"/>
</g>
<!-- n5 -->
<g id="node5" class="node">
<title>n5</title>
<polygon fill="none" stroke="black" points="1854,-151.5 1854,-189.5 1955,-189.5 1955,-151.5 1854,-151.5"/>
<text text-anchor="middle" x="1904.5" y="-177.5" font-family="Times,serif" font-size="10.00">Novela Historica</text>
<polyline fill="none" stroke="black" points="1854,-170.5 1955,-170.5 "/>
<text text-anchor="middle" x="1904.5" y="-158.5" font-family="Times,serif" font-size="10.00">Novela Historica</text>
</g>
<!-- n1&#45;&gt;n5 -->
<g id="edge4" class="edge">
<title>n1&#45;&gt;n5</title>
<path fill="none" stroke="black" d="M1543.74,-267.53C1621.98,-246.7 1763.12,-209.13 1843.72,-187.68"/>
<polygon fill="black" stroke="black" points="1844.95,-190.97 1853.72,-185.02 1843.15,-184.21 1844.95,-190.97"/>
</g>
<!-- n6 -->
<g id="node6" class="node">
<title>n6</title>
<polygon fill="none" stroke="black" points="2324.5,-142 2324.5,-199 2428.5,-199 2428.5,-142 2324.5,-142"/>
<text text-anchor="middle" x="2376.5" y="-187" font-family="Times,serif" font-size="10.00">Novela Social</text>
<polyline fill="none" stroke="black" points="2324.5,-180 2428.5,-180 "/>
<text text-anchor="middle" x="2376.5" y="-168" font-family="Times,serif" font-size="10.00">Realismo Magico</text>
<polyline fill="none" stroke="black" points="2324.5,-161 2428.5,-161 "/>
<text text-anchor="middle" x="2376.5" y="-149" font-family="Times,serif" font-size="10.00">Romance Clasico</text>
</g>
<!-- n1&#45;&gt;n6 -->
<g id="edge5" class="edge">
<title>n1&#45;&gt;n6</title>
<path fill="none" stroke="black" d="M1543.79,-275.47C1701.93,-255.73 2149.43,-199.85 2314.41,-179.25"/>
<polygon fill="black" stroke="black" points="2314.91,-182.72 2324.4,-178.01 2314.04,-175.77 2314.91,-182.72"/>
</g>
<!-- n7 -->
<g id="node7" class="node">
<title>n7</title>
<polygon fill="none" stroke="black" points="0,-19.5 0,-76.5 101,-76.5 101,-19.5 0,-19.5"/>
<text text-anchor="middle" x="50.5" y="-64.5" font-family="Times,serif" font-size="10.00">Aventura</text>
<polyline fill="none" stroke="black" points="0,-57.5 101,-57.5 "/>
<text text-anchor="middle" x="50.5" y="-45.5" font-family="Times,serif" font-size="10.00">Aventura Juvenil</text>
<polyline fill="none" stroke="black" points="0,-38.5 101,-38.5 "/>
<text text-anchor="middle" x="50.5" y="-26.5" font-family="Times,serif" font-size="10.00">Aventura Juvenil</text>
</g>
<!-- n2&#45;&gt;n7 -->
<g id="edge6" class="edge">
<title>n2&#45;&gt;n7</title>
<path fill="none" stroke="black" d="M303.75,-159.68C251.7,-148.91 172.27,-128.67 109.5,-96 102.39,-92.3 95.31,-87.69 88.66,-82.81"/>
<polygon fill="black" stroke="black" points="90.54,-79.84 80.48,-76.53 86.28,-85.39 90.54,-79.84"/>
</g>
<!-- n8 -->
<g id="node8" class="node">
<title>n8</title>
<polygon fill="none" stroke="black" points="119,-19.5 119,-76.5 262,-76.5 262,-19.5 119,-19.5"/>
<text text-anchor="middle" x="190.5" y="-64.5" font-family="Times,serif" font-size="10.00">Aventura/Ciencia Ficcion</text>
<polyline fill="none" stroke="black" points="119,-57.5 262,-57.5 "/>
<text text-anchor="middle" x="190.5" y="-45.5" font-family="Times,serif" font-size="10.00">Ciencia Ficcion</text>
<polyline fill="none" stroke="black" points="119,-38.5 262,-38.5 "/>
<text text-anchor="middle" x="190.5" y="-26.5" font-family="Times,serif" font-size="10.00">Ciencia Ficcion</text>
</g>
<!-- n2&#45;&gt;n8 -->
<g id="edge7" class="edge">
<title>n2&#45;&gt;n8</title>
<path fill="none" stroke="black" d="M306.72,-132.36C284.59,-116.49 258.95,-98.1 237.39,-82.63"/>
<polygon fill="black" stroke="black" points="239.2,-79.62 229.03,-76.64 235.12,-85.31 239.2,-79.62"/>
</g>
<!-- n9 -->
<g id="node9" class="node">
<title>n9</title>
<polygon fill="none" stroke="black" points="280.5,-29 280.5,-67 334.5,-67 334.5,-29 280.5,-29"/>
<text text-anchor="middle" x="307.5" y="-55" font-family="Times,serif" font-size="10.00">Clasico</text>
<polyline fill="none" stroke="black" points="280.5,-48 334.5,-48 "/>
<text text-anchor="middle" x="307.5" y="-36" font-family="Times,serif" font-size="10.00">Clasico</text>
</g>
<!-- n2&#45;&gt;n9 -->
<g id="edge8" class="edge">
<title>n2&#45;&gt;n9</title>
<path fill="none" stroke="black" d="M342.78,-132.36C335.17,-114.38 326.19,-93.16 319.19,-76.63"/>
<polygon fill="black" stroke="black" points="322.25,-74.86 315.13,-67.02 315.8,-77.59 322.25,-74.86"/>
</g>
<!-- n10 -->
<g id="node10" class="node">
<title>n10</title>
<polygon fill="none" stroke="black" points="353,-19.5 353,-76.5 466,-76.5 466,-19.5 353,-19.5"/>
<text text-anchor="middle" x="409.5" y="-64.5" font-family="Times,serif" font-size="10.00">Clasico Moderno</text>
<polyline fill="none" stroke="black" points="353,-57.5 466,-57.5 "/>
<text text-anchor="middle" x="409.5" y="-45.5" font-family="Times,serif" font-size="10.00">Clasico/Adaptacion</text>
<polyline fill="none" stroke="black" points="353,-38.5 466,-38.5 "/>
<text text-anchor="middle" x="409.5" y="-26.5" font-family="Times,serif" font-size="10.00">Distopia</text>
</g>
<!-- n2&#45;&gt;n10 -->
<g id="edge9" class="edge">
<title>n2&#45;&gt;n10</title>
<path fill="none" stroke="black" d="M374.22,-132.36C380.46,-117.61 387.62,-100.69 393.86,-85.96"/>
<polygon fill="black" stroke="black" points="397.13,-87.21 397.8,-76.64 390.68,-84.48 397.13,-87.21"/>
</g>
<!-- n11 -->
<g id="node11" class="node">
<title>n11</title>
<polygon fill="none" stroke="black" points="484,-0.5 484,-95.5 543,-95.5 543,-0.5 484,-0.5"/>
<text text-anchor="middle" x="513.5" y="-83.5" font-family="Times,serif" font-size="10.00">Distopia</text>
<polyline fill="none" stroke="black" points="484,-76.5 543,-76.5 "/>
<text text-anchor="middle" x="513.5" y="-64.5" font-family="Times,serif" font-size="10.00">Distopia</text>
<polyline fill="none" stroke="black" points="484,-57.5 543,-57.5 "/>
<text text-anchor="middle" x="513.5" y="-45.5" font-family="Times,serif" font-size="10.00">Distopia</text>
<polyline fill="none" stroke="black" points="484,-38.5 543,-38.5 "/>
<text text-anchor="middle" x="513.5" y="-26.5" font-family="Times,serif" font-size="10.00">Distopia</text>
<polyline fill="none" stroke="black" points="484,-19.5 543,-19.5 "/>
<text text-anchor="middle" x="513.5" y="-7.5" font-family="Times,serif" font-size="10.00">Distopia</text>
</g>
<!-- n2&#45;&gt;n11 -->
<g id="edge10" class="edge">
<title>n2&#45;&gt;n11</title>
<path fill="none" stroke="black" d="M413.22,-139.68C433.47,-127.43 455.97,-112.3 474.5,-96 475.2,-95.39 475.89,-94.76 476.58,-94.12"/>
<polygon fill="black" stroke="black" points="479.21,-96.45 483.86,-86.93 474.29,-91.47 479.21,-96.45"/>
</g>
<!-- n12 -->
<g id="node12" class="node">
<title>n12</title>
<polygon fill="none" stroke="black" points="561,-10 561,-86 654,-86 654,-10 561,-10"/>
<text text-anchor="middle" x="607.5" y="-74" font-family="Times,serif" font-size="10.00">Ensayo Politico</text>
<polyline fill="none" stroke="black" points="561,-67 654,-67 "/>
<text text-anchor="middle" x="607.5" y="-55" font-family="Times,serif" font-size="10.00">Experimental</text>
<polyline fill="none" stroke="black" points="561,-48 654,-48 "/>
<text text-anchor="middle" x="607.5" y="-36" font-family="Times,serif" font-size="10.00">Fabula</text>
<polyline fill="none" stroke="black" points="561,-29 654,-29 "/>
<text text-anchor="middle" x="607.5" y="-17" font-family="Times,serif" font-size="10.00">Fabula</text>
</g>
<!-- n3&#45;&gt;n12 -->
<g id="edge11" class="edge">
<title>n3&#45;&gt;n12</title>
<path fill="none" stroke="black" d="M843.4,-159.15C794.78,-148.09 721.26,-127.75 663.5,-96 661.21,-94.74 658.93,-93.38 656.67,-91.95"/>
<polygon fill="black" stroke="black" points="658.31,-88.83 648.08,-86.08 654.36,-94.61 658.31,-88.83"/>
</g>
<!-- n13 -->
<g id="node13" class="node">
<title>n13</title>
<polygon fill="none" stroke="black" points="672.5,-10 672.5,-86 770.5,-86 770.5,-10 672.5,-10"/>
<text text-anchor="middle" x="721.5" y="-74" font-family="Times,serif" font-size="10.00">Fantasia</text>
<polyline fill="none" stroke="black" points="672.5,-67 770.5,-67 "/>
<text text-anchor="middle" x="721.5" y="-55" font-family="Times,serif" font-size="10.00">Fantasia</text>
<polyline fill="none" stroke="black" points="672.5,-48 770.5,-48 "/>
<text text-anchor="middle" x="721.5" y="-36" font-family="Times,serif" font-size="10.00">Fantasia</text>
<polyline fill="none" stroke="black" points="672.5,-29 770.5,-29 "/>
<text text-anchor="middle" x="721.5" y="-17" font-family="Times,serif" font-size="10.00">Fantasia Juvenil</text>
</g>
<!-- n3&#45;&gt;n13 -->
<g id="edge12" class="edge">
<title>n3&#45;&gt;n13</title>
<path fill="none" stroke="black" d="M843.26,-138.19C823,-125.59 799.83,-110.6 779.5,-96 777.88,-94.84 776.25,-93.65 774.61,-92.43"/>
<polygon fill="black" stroke="black" points="776.47,-89.45 766.38,-86.21 772.25,-95.03 776.47,-89.45"/>
</g>
<!-- n14 -->
<g id="node14" class="node">
<title>n14</title>
<polygon fill="none" stroke="black" points="788.5,-19.5 788.5,-76.5 886.5,-76.5 886.5,-19.5 788.5,-19.5"/>
<text text-anchor="middle" x="837.5" y="-64.5" font-family="Times,serif" font-size="10.00">Fantasia Juvenil</text>
<polyline fill="none" stroke="black" points="788.5,-57.5 886.5,-57.5 "/>
<text text-anchor="middle" x="837.5" y="-45.5" font-family="Times,serif" font-size="10.00">Fantasia Juvenil</text>
<polyline fill="none" stroke="black" points="788.5,-38.5 886.5,-38.5 "/>
<text text-anchor="middle" x="837.5" y="-26.5" font-family="Times,serif" font-size="10.00">Fantasia Juvenil</text>
</g>
<!-- n3&#45;&gt;n14 -->
<g id="edge13" class="edge">
<title>n3&#45;&gt;n14</title>
<path fill="none" stroke="black" d="M877.62,-132.36C870.53,-117.61 862.38,-100.69 855.29,-85.96"/>
<polygon fill="black" stroke="black" points="858.29,-84.13 850.8,-76.64 851.99,-87.17 858.29,-84.13"/>
</g>
<!-- n15 -->
<g id="node15" class="node">
<title>n15</title>
<polygon fill="none" stroke="black" points="905,-0.5 905,-95.5 1004,-95.5 1004,-0.5 905,-0.5"/>
<text text-anchor="middle" x="954.5" y="-83.5" font-family="Times,serif" font-size="10.00">Fantasia Juvenil</text>
<polyline fill="none" stroke="black" points="905,-76.5 1004,-76.5 "/>
<text text-anchor="middle" x="954.5" y="-64.5" font-family="Times,serif" font-size="10.00">Fantasia epica</text>
<polyline fill="none" stroke="black" points="905,-57.5 1004,-57.5 "/>
<text text-anchor="middle" x="954.5" y="-45.5" font-family="Times,serif" font-size="10.00">Fantasia epica</text>
<polyline fill="none" stroke="black" points="905,-38.5 1004,-38.5 "/>
<text text-anchor="middle" x="954.5" y="-26.5" font-family="Times,serif" font-size="10.00">Fantasia/Teatro</text>
<polyline fill="none" stroke="black" points="905,-19.5 1004,-19.5 "/>
<text text-anchor="middle" x="954.5" y="-7.5" font-family="Times,serif" font-size="10.00">Ficcion Absurda</text>
</g>
<!-- n3&#45;&gt;n15 -->
<g id="edge14" class="edge">
<title>n3&#45;&gt;n15</title>
<path fill="none" stroke="black" d="M913.68,-132.36C917.95,-123.65 922.59,-114.18 927.16,-104.84"/>
<polygon fill="black" stroke="black" points="930.43,-106.11 931.69,-95.59 924.15,-103.04 930.43,-106.11"/>
</g>
<!-- n16 -->
<g id="node16" class="node">
<title>n16</title>
<polygon fill="none" stroke="black" points="1022.5,-0.5 1022.5,-95.5 1158.5,-95.5 1158.5,-0.5 1022.5,-0.5"/>
<text text-anchor="middle" x="1090.5" y="-83.5" font-family="Times,serif" font-size="10.00">Ficcion Historica</text>
<polyline fill="none" stroke="black" points="1022.5,-76.5 1158.5,-76.5 "/>
<text text-anchor="middle" x="1090.5" y="-64.5" font-family="Times,serif" font-size="10.00">Ficcion Historica</text>
<polyline fill="none" stroke="black" points="1022.5,-57.5 1158.5,-57.5 "/>
<text text-anchor="middle" x="1090.5" y="-45.5" font-family="Times,serif" font-size="10.00">Ficcion Juvenil/Distopia</text>
<polyline fill="none" stroke="black" points="1022.5,-38.5 1158.5,-38.5 "/>
<text text-anchor="middle" x="1090.5" y="-26.5" font-family="Times,serif" font-size="10.00">Ficcion Juvenil/Distopia</text>
<polyline fill="none" stroke="black" points="1022.5,-19.5 1158.5,-19.5 "/>
<text text-anchor="middle" x="1090.5" y="-7.5" font-family="Times,serif" font-size="10.00">Ficcion Juvenil/Distopia</text>
</g>
<!-- n3&#45;&gt;n16 -->
<g id="edge15" class="edge">
<title>n3&#45;&gt;n16</title>
<path fill="none" stroke="black" d="M947.5,-137.37C967.72,-124.87 991.3,-110.3 1013.42,-96.63"/>
<polygon fill="black" stroke="black" points="1015.47,-99.48 1022.14,-91.24 1011.79,-93.52 1015.47,-99.48"/>
</g>
<!-- n17 -->
<g id="node17" class="node">
<title>n17</title>
<polygon fill="none" stroke="black" points="1176.5,-0.5 1176.5,-95.5 1322.5,-95.5 1322.5,-0.5 1176.5,-0.5"/>
<text text-anchor="middle" x="1249.5" y="-83.5" font-family="Times,serif" font-size="10.00">Filosofia/Novela</text>
<polyline fill="none" stroke="black" points="1176.5,-76.5 1322.5,-76.5 "/>
<text text-anchor="middle" x="1249.5" y="-64.5" font-family="Times,serif" font-size="10.00">Gotico/Ciencia Ficcion</text>
<polyline fill="none" stroke="black" points="1176.5,-57.5 1322.5,-57.5 "/>
<text text-anchor="middle" x="1249.5" y="-45.5" font-family="Times,serif" font-size="10.00">Gotico/Filosofia</text>
<polyline fill="none" stroke="black" points="1176.5,-38.5 1322.5,-38.5 "/>
<text text-anchor="middle" x="1249.5" y="-26.5" font-family="Times,serif" font-size="10.00">Gotico/Romance</text>
<polyline fill="none" stroke="black" points="1176.5,-19.5 1322.5,-19.5 "/>
<text text-anchor="middle" x="1249.5" y="-7.5" font-family="Times,serif" font-size="10.00">Misterio/Ficcion Historica</text>
</g>
<!-- n4&#45;&gt;n17 -->
<g id="edge16" class="edge">
<title>n4&#45;&gt;n17</title>
<path fill="none" stroke="black" d="M1426.2,-142C1397.22,-128.64 1362.3,-112.05 1331.5,-96 1331.41,-95.95 1331.32,-95.91 1331.23,-95.86"/>
<polygon fill="black" stroke="black" points="1333.13,-92.91 1322.66,-91.32 1329.85,-99.09 1333.13,-92.91"/>
</g>
<!-- n18 -->
<g id="node18" class="node">
<title>n18</title>
<polygon fill="none" stroke="black" points="1340.5,-10 1340.5,-86 1486.5,-86 1486.5,-10 1340.5,-10"/>
<text text-anchor="middle" x="1413.5" y="-74" font-family="Times,serif" font-size="10.00">Misterio/Ficcion Historica</text>
<polyline fill="none" stroke="black" points="1340.5,-67 1486.5,-67 "/>
<text text-anchor="middle" x="1413.5" y="-55" font-family="Times,serif" font-size="10.00">Misterio/Ficcion Historica</text>
<polyline fill="none" stroke="black" points="1340.5,-48 1486.5,-48 "/>
<text text-anchor="middle" x="1413.5" y="-36" font-family="Times,serif" font-size="10.00">Misterio/Ficcion Historica</text>
<polyline fill="none" stroke="black" points="1340.5,-29 1486.5,-29 "/>
<text text-anchor="middle" x="1413.5" y="-17" font-family="Times,serif" font-size="10.00">Misterio/Ficcion Historica</text>
</g>
<!-- n4&#45;&gt;n18 -->
<g id="edge17" class="edge">
<title>n4&#45;&gt;n18</title>
<path fill="none" stroke="black" d="M1470.52,-141.85C1461.95,-127.9 1451.34,-110.61 1441.59,-94.74"/>
<polygon fill="black" stroke="black" points="1444.5,-92.8 1436.29,-86.11 1438.54,-96.46 1444.5,-92.8"/>
</g>
<!-- n19 -->
<g id="node19" class="node">
<title>n19</title>
<polygon fill="none" stroke="black" points="1504.5,-19.5 1504.5,-76.5 1618.5,-76.5 1618.5,-19.5 1504.5,-19.5"/>
<text text-anchor="middle" x="1561.5" y="-64.5" font-family="Times,serif" font-size="10.00">Modernista</text>
<polyline fill="none" stroke="black" points="1504.5,-57.5 1618.5,-57.5 "/>
<text text-anchor="middle" x="1561.5" y="-45.5" font-family="Times,serif" font-size="10.00">No Ficcion/Historia</text>
<polyline fill="none" stroke="black" points="1504.5,-38.5 1618.5,-38.5 "/>
<text text-anchor="middle" x="1561.5" y="-26.5" font-family="Times,serif" font-size="10.00">Novela</text>
</g>
<!-- n4&#45;&gt;n19 -->
<g id="edge18" class="edge">
<title>n4&#45;&gt;n19</title>
<path fill="none" stroke="black" d="M1504.48,-141.85C1514.82,-125.02 1528.15,-103.31 1539.31,-85.13"/>
<polygon fill="black" stroke="black" points="1542.35,-86.87 1544.6,-76.52 1536.39,-83.21 1542.35,-86.87"/>
</g>
<!-- n20 -->
<g id="node20" class="node">
<title>n20</title>
<polygon fill="none" stroke="black" points="1636.5,-19.5 1636.5,-76.5 1774.5,-76.5 1774.5,-19.5 1636.5,-19.5"/>
<text text-anchor="middle" x="1705.5" y="-64.5" font-family="Times,serif" font-size="10.00">Novela</text>
<polyline fill="none" stroke="black" points="1636.5,-57.5 1774.5,-57.5 "/>
<text text-anchor="middle" x="1705.5" y="-45.5" font-family="Times,serif" font-size="10.00">Novela Comica/Misterio</text>
<polyline fill="none" stroke="black" points="1636.5,-38.5 1774.5,-38.5 "/>
<text text-anchor="middle" x="1705.5" y="-26.5" font-family="Times,serif" font-size="10.00">Novela Corta</text>
</g>
<!-- n4&#45;&gt;n20 -->
<g id="edge19" class="edge">
<title>n4&#45;&gt;n20</title>
<path fill="none" stroke="black" d="M1541.75,-141.96C1567.87,-128.47 1599.51,-111.76 1627.5,-96 1635.49,-91.5 1643.87,-86.62 1652.04,-81.78"/>
<polygon fill="black" stroke="black" points="1654.01,-84.68 1660.81,-76.55 1650.43,-78.67 1654.01,-84.68"/>
</g>
<!-- n21 -->
<g id="node21" class="node">
<title>n21</title>
<polygon fill="none" stroke="black" points="1792.5,-10 1792.5,-86 1896.5,-86 1896.5,-10 1792.5,-10"/>
<text text-anchor="middle" x="1844.5" y="-74" font-family="Times,serif" font-size="10.00">Novela Corta</text>
<polyline fill="none" stroke="black" points="1792.5,-67 1896.5,-67 "/>
<text text-anchor="middle" x="1844.5" y="-55" font-family="Times,serif" font-size="10.00">Novela Filosofica</text>
<polyline fill="none" stroke="black" points="1792.5,-48 1896.5,-48 "/>
<text text-anchor="middle" x="1844.5" y="-36" font-family="Times,serif" font-size="10.00">Novela Filosofica</text>
<polyline fill="none" stroke="black" points="1792.5,-29 1896.5,-29 "/>
<text text-anchor="middle" x="1844.5" y="-17" font-family="Times,serif" font-size="10.00">Novela Historica</text>
</g>
<!-- n5&#45;&gt;n21 -->
<g id="edge20" class="edge">
<title>n5&#45;&gt;n21</title>
<path fill="none" stroke="black" d="M1895.52,-151.46C1888.12,-136.61 1877.31,-114.89 1867.53,-95.26"/>
<polygon fill="black" stroke="black" points="1870.58,-93.52 1862.99,-86.13 1864.31,-96.64 1870.58,-93.52"/>
</g>
<!-- n22 -->
<g id="node22" class="node">
<title>n22</title>
<polygon fill="none" stroke="black" points="1915,-29 1915,-67 2016,-67 2016,-29 1915,-29"/>
<text text-anchor="middle" x="1965.5" y="-55" font-family="Times,serif" font-size="10.00">Novela Historica</text>
<polyline fill="none" stroke="black" points="1915,-48 2016,-48 "/>
<text text-anchor="middle" x="1965.5" y="-36" font-family="Times,serif" font-size="10.00">Novela Historica</text>
</g>
<!-- n5&#45;&gt;n22 -->
<g id="edge21" class="edge">
<title>n5&#45;&gt;n22</title>
<path fill="none" stroke="black" d="M1913.63,-151.46C1923.69,-131.58 1939.99,-99.39 1951.63,-76.39"/>
<polygon fill="black" stroke="black" points="1954.91,-77.67 1956.31,-67.16 1948.67,-74.5 1954.91,-77.67"/>
</g>
<!-- n23 -->
<g id="node23" class="node">
<title>n23</title>
<polygon fill="none" stroke="black" points="2034.5,-19.5 2034.5,-76.5 2176.5,-76.5 2176.5,-19.5 2034.5,-19.5"/>
<text text-anchor="middle" x="2105.5" y="-64.5" font-family="Times,serif" font-size="10.00">Novela Historica/Thriller</text>
<polyline fill="none" stroke="black" points="2034.5,-57.5 2176.5,-57.5 "/>
<text text-anchor="middle" x="2105.5" y="-45.5" font-family="Times,serif" font-size="10.00">Novela Juvenil</text>
<polyline fill="none" stroke="black" points="2034.5,-38.5 2176.5,-38.5 "/>
<text text-anchor="middle" x="2105.5" y="-26.5" font-family="Times,serif" font-size="10.00">Novela Juvenil</text>
</g>
<!-- n5&#45;&gt;n23 -->
<g id="edge22" class="edge">
<title>n5&#45;&gt;n23</title>
<path fill="none" stroke="black" d="M1934.59,-151.46C1965.21,-133.1 2013.35,-104.24 2050.75,-81.82"/>
<polygon fill="black" stroke="black" points="2052.75,-84.71 2059.52,-76.56 2049.15,-78.7 2052.75,-84.71"/>
</g>
<!-- n24 -->
<g id="node24" class="node">
<title>n24</title>
<polygon fill="none" stroke="black" points="2194.5,-19.5 2194.5,-76.5 2306.5,-76.5 2306.5,-19.5 2194.5,-19.5"/>
<text text-anchor="middle" x="2250.5" y="-64.5" font-family="Times,serif" font-size="10.00">Novela Psicologica</text>
<polyline fill="none" stroke="black" points="2194.5,-57.5 2306.5,-57.5 "/>
<text text-anchor="middle" x="2250.5" y="-45.5" font-family="Times,serif" font-size="10.00">Novela Psicologica</text>
<polyline fill="none" stroke="black" points="2194.5,-38.5 2306.5,-38.5 "/>
<text text-anchor="middle" x="2250.5" y="-26.5" font-family="Times,serif" font-size="10.00">Novela Social</text>
</g>
<!-- n6&#45;&gt;n24 -->
<g id="edge23" class="edge">
<title>n6&#45;&gt;n24</title>
<path fill="none" stroke="black" d="M2347.59,-141.85C2329.51,-124.56 2306.05,-102.13 2286.73,-83.65"/>
<polygon fill="black" stroke="black" points="2288.92,-80.9 2279.27,-76.52 2284.08,-85.96 2288.92,-80.9"/>
</g>
<!-- n25 -->
<g id="node25" class="node">
<title>n25</title>
<polygon fill="none" stroke="black" points="2324.5,-10 2324.5,-86 2428.5,-86 2428.5,-10 2324.5,-10"/>
<text text-anchor="middle" x="2376.5" y="-74" font-family="Times,serif" font-size="10.00">Poesia</text>
<polyline fill="none" stroke="black" points="2324.5,-67 2428.5,-67 "/>
<text text-anchor="middle" x="2376.5" y="-55" font-family="Times,serif" font-size="10.00">Post&#45;apocaliptica</text>
<polyline fill="none" stroke="black" points="2324.5,-48 2428.5,-48 "/>
<text text-anchor="middle" x="2376.5" y="-36" font-family="Times,serif" font-size="10.00">Realismo</text>
<polyline fill="none" stroke="black" points="2324.5,-29 2428.5,-29 "/>
<text text-anchor="middle" x="2376.5" y="-17" font-family="Times,serif" font-size="10.00">Realismo Magico</text>
</g>
<!-- n6&#45;&gt;n25 -->
<g id="edge24" class="edge">
<title>n6&#45;&gt;n25</title>
<path fill="none" stroke="black" d="M2376.5,-141.85C2376.5,-128.42 2376.5,-111.89 2376.5,-96.51"/>
<polygon fill="black" stroke="black" points="2380,-96.11 2376.5,-86.11 2373,-96.11 2380,-96.11"/>
</g>
<!-- n26 -->
<g id="node26" class="node">
<title>n26</title>
<polygon fill="none" stroke="black" points="2446.5,-0.5 2446.5,-95.5 2550.5,-95.5 2550.5,-0.5 2446.5,-0.5"/>
<text text-anchor="middle" x="2498.5" y="-83.5" font-family="Times,serif" font-size="10.00">Realismo Magico</text>
<polyline fill="none" stroke="black" points="2446.5,-76.5 2550.5,-76.5 "/>
<text text-anchor="middle" x="2498.5" y="-64.5" font-family="Times,serif" font-size="10.00">Realismo Magico</text>
<polyline fill="none" stroke="black" points="2446.5,-57.5 2550.5,-57.5 "/>
<text text-anchor="middle" x="2498.5" y="-45.5" font-family="Times,serif" font-size="10.00">Realismo Magico</text>
<polyline fill="none" stroke="black" points="2446.5,-38.5 2550.5,-38.5 "/>
<text text-anchor="middle" x="2498.5" y="-26.5" font-family="Times,serif" font-size="10.00">Romance</text>
<polyline fill="none" stroke="black" points="2446.5,-19.5 2550.5,-19.5 "/>
<text text-anchor="middle" x="2498.5" y="-7.5" font-family="Times,serif" font-size="10.00">Romance Clasico</text>
</g>
<!-- n6&#45;&gt;n26 -->
<g id="edge25" class="edge">
<title>n6&#45;&gt;n26</title>
<path fill="none" stroke="black" d="M2404.49,-141.85C2416.12,-130.36 2430.05,-116.61 2443.57,-103.25"/>
<polygon fill="black" stroke="black" points="2446.37,-105.41 2451.03,-95.89 2441.45,-100.42 2446.37,-105.41"/>
</g>
<!-- n27 -->
<g id="node27" class="node">
<title>n27</title>
<polygon fill="none" stroke="black" points="2569,-0.5 2569,-95.5 2652,-95.5 2652,-0.5 2569,-0.5"/>
<text text-anchor="middle" x="2610.5" y="-83.5" font-family="Times,serif" font-size="10.00">Terror Gotico</text>
<polyline fill="none" stroke="black" points="2569,-76.5 2652,-76.5 "/>
<text text-anchor="middle" x="2610.5" y="-64.5" font-family="Times,serif" font-size="10.00">Terror Gotico</text>
<polyline fill="none" stroke="black" points="2569,-57.5 2652,-57.5 "/>
<text text-anchor="middle" x="2610.5" y="-45.5" font-family="Times,serif" font-size="10.00">Thriller</text>
<polyline fill="none" stroke="black" points="2569,-38.5 2652,-38.5 "/>
<text text-anchor="middle" x="2610.5" y="-26.5" font-family="Times,serif" font-size="10.00">Thriller</text>
<polyline fill="none" stroke="black" points="2569,-19.5 2652,-19.5 "/>
<text text-anchor="middle" x="2610.5" y="-7.5" font-family="Times,serif" font-size="10.00">Tragedia</text>
</g>
<!-- n6&#45;&gt;n27 -->
<g id="edge26" class="edge">
<title>n6&#45;&gt;n27</title>
<path fill="none" stroke="black" d="M2428.59,-154.2C2466.58,-141.73 2518.39,-121.96 2559.5,-96 2559.89,-95.75 2560.29,-95.5 2560.68,-95.24"/>
<polygon fill="black" stroke="black" points="2562.71,-98.1 2568.88,-89.48 2558.68,-92.37 2562.71,-98.1"/>
</g>
</g>
</svg>
