<?xml version="1.0" encoding="UTF-8" standalone="no"?>
<!DOCTYPE svg PUBLIC "-//W3C//DTD SVG 1.1//EN"
 "http://www.w3.org/Graphics/SVG/1.1/DTD/svg11.dtd">
<!-- Generated by graphviz version 2.43.0 (0)
 -->
<!-- Title: G Pages: 1 -->
<svg width="3266pt" height="348pt"
 viewBox="0.00 0.00 3265.50 348.00" xmlns="http://www.w3.org/2000/svg" xmlns:xlink="http://www.w3.org/1999/xlink">
<g id="graph0" class="graph" transform="scale(1 1) rotate(0) translate(4 344)">
<title>G</title>
<polygon fill="white" stroke="transparent" points="-4,4 -4,-344 3261.5,-344 3261.5,4 -4,4"/>
<!-- n1 -->
<g id="node1" class="node">
<title>n1</title>
<polygon fill="none" stroke="black" points="1515,-301.5 1515,-339.5 1614,-339.5 1614,-301.5 1515,-301.5"/>
<text text-anchor="middle" x="1564.5" y="-327.5" font-family="Times,serif" font-size="10.00">Género Ejemplo</text>
<polyline fill="none" stroke="black" points="1515,-320.5 1614,-320.5 "/>
<text text-anchor="middle" x="1564.5" y="-308.5" font-family="Times,serif" font-size="10.00">Género Ejemplo</text>
</g>
<!-- n2 -->
<g id="node2" class="node">
<title>n2</title>
<polygon fill="none" stroke="black" points="638,-226.5 638,-264.5 737,-264.5 737,-226.5 638,-226.5"/>
<text text-anchor="middle" x="687.5" y="-252.5" font-family="Times,serif" font-size="10.00">Género Ejemplo</text>
<polyline fill="none" stroke="black" points="638,-245.5 737,-245.5 "/>
<text text-anchor="middle" x="687.5" y="-233.5" font-family="Times,serif" font-size="10.00">Género Ejemplo</text>
</g>
<!-- n1&#45;&gt;n2 -->
<g id="edge1" class="edge">
<title>n1&#45;&gt;n2</title>
<path fill="none" stroke="black" d="M1514.84,-315.37C1363.97,-302.81 911.36,-265.13 747.53,-251.5"/>
<polygon fill="black" stroke="black" points="747.42,-247.98 737.16,-250.63 746.84,-254.95 747.42,-247.98"/>
</g>
<!-- n3 -->
<g id="node3" class="node">
<title>n3</title>
<polygon fill="none" stroke="black" points="1515,-226.5 1515,-264.5 1614,-264.5 1614,-226.5 1515,-226.5"/>
<text text-anchor="middle" x="1564.5" y="-252.5" font-family="Times,serif" font-size="10.00">Género Ejemplo</text>
<polyline fill="none" stroke="black" points="1515,-245.5 1614,-245.5 "/>
<text text-anchor="middle" x="1564.5" y="-233.5" font-family="Times,serif" font-size="10.00">Género Ejemplo</text>
</g>
<!-- n1&#45;&gt;n3 -->
<g id="edge2" class="edge">
<title>n1&#45;&gt;n3</title>
<path fill="none" stroke="black" d="M1564.5,-301.46C1564.5,-293.38 1564.5,-283.68 1564.5,-274.68"/>
<polygon fill="black" stroke="black" points="1568,-274.59 1564.5,-264.59 1561,-274.59 1568,-274.59"/>
</g>
<!-- n4 -->
<g id="node4" class="node">
<title>n4</title>
<polygon fill="none" stroke="black" points="2392,-226.5 2392,-264.5 2491,-264.5 2491,-226.5 2392,-226.5"/>
<text text-anchor="middle" x="2441.5" y="-252.5" font-family="Times,serif" font-size="10.00">Género Ejemplo</text>
<polyline fill="none" stroke="black" points="2392,-245.5 2491,-245.5 "/>
<text text-anchor="middle" x="2441.5" y="-233.5" font-family="Times,serif" font-size="10.00">Género Ejemplo</text>
</g>
<!-- n1&#45;&gt;n4 -->
<g id="edge3" class="edge">
<title>n1&#45;&gt;n4</title>
<path fill="none" stroke="black" d="M1614.16,-315.37C1765.03,-302.81 2217.64,-265.13 2381.47,-251.5"/>
<polygon fill="black" stroke="black" points="2382.16,-254.95 2391.84,-250.63 2381.58,-247.98 2382.16,-254.95"/>
</g>
<!-- n5 -->
<g id="node5" class="node">
<title>n5</title>
<polygon fill="none" stroke="black" points="170,-142 170,-180 269,-180 269,-142 170,-142"/>
<text text-anchor="middle" x="219.5" y="-168" font-family="Times,serif" font-size="10.00">Fantasía</text>
<polyline fill="none" stroke="black" points="170,-161 269,-161 "/>
<text text-anchor="middle" x="219.5" y="-149" font-family="Times,serif" font-size="10.00">Género Ejemplo</text>
</g>
<!-- n2&#45;&gt;n5 -->
<g id="edge4" class="edge">
<title>n2&#45;&gt;n5</title>
<path fill="none" stroke="black" d="M637.86,-235.75C551.15,-220.46 372.49,-188.97 279.19,-172.52"/>
<polygon fill="black" stroke="black" points="279.79,-169.07 269.34,-170.79 278.58,-175.97 279.79,-169.07"/>
</g>
<!-- n6 -->
<g id="node6" class="node">
<title>n6</title>
<polygon fill="none" stroke="black" points="521,-142 521,-180 620,-180 620,-142 521,-142"/>
<text text-anchor="middle" x="570.5" y="-168" font-family="Times,serif" font-size="10.00">Género Ejemplo</text>
<polyline fill="none" stroke="black" points="521,-161 620,-161 "/>
<text text-anchor="middle" x="570.5" y="-149" font-family="Times,serif" font-size="10.00">Género Ejemplo</text>
</g>
<!-- n2&#45;&gt;n6 -->
<g id="edge5" class="edge">
<title>n2&#45;&gt;n6</title>
<path fill="none" stroke="black" d="M661.82,-226.4C645.06,-214.57 622.98,-199 604.73,-186.13"/>
<polygon fill="black" stroke="black" points="606.31,-182.97 596.12,-180.06 602.27,-188.69 606.31,-182.97"/>
</g>
<!-- n7 -->
<g id="node7" class="node">
<title>n7</title>
<polygon fill="none" stroke="black" points="755,-142 755,-180 854,-180 854,-142 755,-142"/>
<text text-anchor="middle" x="804.5" y="-168" font-family="Times,serif" font-size="10.00">Género Ejemplo</text>
<polyline fill="none" stroke="black" points="755,-161 854,-161 "/>
<text text-anchor="middle" x="804.5" y="-149" font-family="Times,serif" font-size="10.00">Género Ejemplo</text>
</g>
<!-- n2&#45;&gt;n7 -->
<g id="edge6" class="edge">
<title>n2&#45;&gt;n7</title>
<path fill="none" stroke="black" d="M713.18,-226.4C729.94,-214.57 752.02,-199 770.27,-186.13"/>
<polygon fill="black" stroke="black" points="772.73,-188.69 778.88,-180.06 768.69,-182.97 772.73,-188.69"/>
</g>
<!-- n8 -->
<g id="node8" class="node">
<title>n8</title>
<polygon fill="none" stroke="black" points="1222,-142 1222,-180 1321,-180 1321,-142 1222,-142"/>
<text text-anchor="middle" x="1271.5" y="-168" font-family="Times,serif" font-size="10.00">Género Ejemplo</text>
<polyline fill="none" stroke="black" points="1222,-161 1321,-161 "/>
<text text-anchor="middle" x="1271.5" y="-149" font-family="Times,serif" font-size="10.00">Género Ejemplo</text>
</g>
<!-- n3&#45;&gt;n8 -->
<g id="edge7" class="edge">
<title>n3&#45;&gt;n8</title>
<path fill="none" stroke="black" d="M1514.8,-230.5C1464.07,-216.22 1385.33,-194.05 1331.25,-178.82"/>
<polygon fill="black" stroke="black" points="1332.02,-175.41 1321.45,-176.06 1330.12,-182.14 1332.02,-175.41"/>
</g>
<!-- n9 -->
<g id="node9" class="node">
<title>n9</title>
<polygon fill="none" stroke="black" points="1515,-142 1515,-180 1614,-180 1614,-142 1515,-142"/>
<text text-anchor="middle" x="1564.5" y="-168" font-family="Times,serif" font-size="10.00">Género Ejemplo</text>
<polyline fill="none" stroke="black" points="1515,-161 1614,-161 "/>
<text text-anchor="middle" x="1564.5" y="-149" font-family="Times,serif" font-size="10.00">Género Ejemplo</text>
</g>
<!-- n3&#45;&gt;n9 -->
<g id="edge8" class="edge">
<title>n3&#45;&gt;n9</title>
<path fill="none" stroke="black" d="M1564.5,-226.19C1564.5,-215.72 1564.5,-202.37 1564.5,-190.55"/>
<polygon fill="black" stroke="black" points="1568,-190.26 1564.5,-180.26 1561,-190.26 1568,-190.26"/>
</g>
<!-- n10 -->
<g id="node10" class="node">
<title>n10</title>
<polygon fill="none" stroke="black" points="1807,-142 1807,-180 1906,-180 1906,-142 1807,-142"/>
<text text-anchor="middle" x="1856.5" y="-168" font-family="Times,serif" font-size="10.00">Género Ejemplo</text>
<polyline fill="none" stroke="black" points="1807,-161 1906,-161 "/>
<text text-anchor="middle" x="1856.5" y="-149" font-family="Times,serif" font-size="10.00">Género Ejemplo</text>
</g>
<!-- n3&#45;&gt;n10 -->
<g id="edge9" class="edge">
<title>n3&#45;&gt;n10</title>
<path fill="none" stroke="black" d="M1614.03,-230.5C1664.58,-216.22 1743.06,-194.05 1796.96,-178.82"/>
<polygon fill="black" stroke="black" points="1798.05,-182.15 1806.72,-176.06 1796.15,-175.41 1798.05,-182.15"/>
</g>
<!-- n11 -->
<g id="node11" class="node">
<title>n11</title>
<polygon fill="none" stroke="black" points="2275,-142 2275,-180 2374,-180 2374,-142 2275,-142"/>
<text text-anchor="middle" x="2324.5" y="-168" font-family="Times,serif" font-size="10.00">Género Ejemplo</text>
<polyline fill="none" stroke="black" points="2275,-161 2374,-161 "/>
<text text-anchor="middle" x="2324.5" y="-149" font-family="Times,serif" font-size="10.00">Género Ejemplo</text>
</g>
<!-- n4&#45;&gt;n11 -->
<g id="edge10" class="edge">
<title>n4&#45;&gt;n11</title>
<path fill="none" stroke="black" d="M2415.82,-226.4C2399.06,-214.57 2376.98,-199 2358.73,-186.13"/>
<polygon fill="black" stroke="black" points="2360.31,-182.97 2350.12,-180.06 2356.27,-188.69 2360.31,-182.97"/>
</g>
<!-- n12 -->
<g id="node12" class="node">
<title>n12</title>
<polygon fill="none" stroke="black" points="2509,-142 2509,-180 2608,-180 2608,-142 2509,-142"/>
<text text-anchor="middle" x="2558.5" y="-168" font-family="Times,serif" font-size="10.00">Género Ejemplo</text>
<polyline fill="none" stroke="black" points="2509,-161 2608,-161 "/>
<text text-anchor="middle" x="2558.5" y="-149" font-family="Times,serif" font-size="10.00">Género Ejemplo</text>
</g>
<!-- n4&#45;&gt;n12 -->
<g id="edge11" class="edge">
<title>n4&#45;&gt;n12</title>
<path fill="none" stroke="black" d="M2467.18,-226.4C2483.94,-214.57 2506.02,-199 2524.27,-186.13"/>
<polygon fill="black" stroke="black" points="2526.73,-188.69 2532.88,-180.06 2522.69,-182.97 2526.73,-188.69"/>
</g>
<!-- n13 -->
<g id="node13" class="node">
<title>n13</title>
<polygon fill="none" stroke="black" points="2912.5,-132.5 2912.5,-189.5 3024.5,-189.5 3024.5,-132.5 2912.5,-132.5"/>
<text text-anchor="middle" x="2968.5" y="-177.5" font-family="Times,serif" font-size="10.00">Género Ejemplo</text>
<polyline fill="none" stroke="black" points="2912.5,-170.5 3024.5,-170.5 "/>
<text text-anchor="middle" x="2968.5" y="-158.5" font-family="Times,serif" font-size="10.00">Género Ejemplo</text>
<polyline fill="none" stroke="black" points="2912.5,-151.5 3024.5,-151.5 "/>
<text text-anchor="middle" x="2968.5" y="-139.5" font-family="Times,serif" font-size="10.00">Novela Psicológica</text>
</g>
<!-- n4&#45;&gt;n13 -->
<g id="edge12" class="edge">
<title>n4&#45;&gt;n13</title>
<path fill="none" stroke="black" d="M2491.08,-236.74C2586.4,-221.82 2795.23,-189.12 2902.31,-172.36"/>
<polygon fill="black" stroke="black" points="2903.01,-175.79 2912.35,-170.79 2901.93,-168.88 2903.01,-175.79"/>
</g>
<!-- n14 -->
<g id="node14" class="node">
<title>n14</title>
<polygon fill="none" stroke="black" points="0,-19.5 0,-76.5 93,-76.5 93,-19.5 0,-19.5"/>
<text text-anchor="middle" x="46.5" y="-64.5" font-family="Times,serif" font-size="10.00">Ciencia Ficción</text>
<polyline fill="none" stroke="black" points="0,-57.5 93,-57.5 "/>
<text text-anchor="middle" x="46.5" y="-45.5" font-family="Times,serif" font-size="10.00">Clásico</text>
<polyline fill="none" stroke="black" points="0,-38.5 93,-38.5 "/>
<text text-anchor="middle" x="46.5" y="-26.5" font-family="Times,serif" font-size="10.00">Distopía</text>
</g>
<!-- n5&#45;&gt;n14 -->
<g id="edge13" class="edge">
<title>n5&#45;&gt;n14</title>
<path fill="none" stroke="black" d="M181.38,-141.9C157.67,-130.02 126.95,-113.49 101.5,-96 95.8,-92.08 90,-87.67 84.42,-83.17"/>
<polygon fill="black" stroke="black" points="86.35,-80.23 76.42,-76.54 81.89,-85.61 86.35,-80.23"/>
</g>
<!-- n15 -->
<g id="node15" class="node">
<title>n15</title>
<polygon fill="none" stroke="black" points="111,-19.5 111,-76.5 210,-76.5 210,-19.5 111,-19.5"/>
<text text-anchor="middle" x="160.5" y="-64.5" font-family="Times,serif" font-size="10.00">Fantasía</text>
<polyline fill="none" stroke="black" points="111,-57.5 210,-57.5 "/>
<text text-anchor="middle" x="160.5" y="-45.5" font-family="Times,serif" font-size="10.00">Fábula</text>
<polyline fill="none" stroke="black" points="111,-38.5 210,-38.5 "/>
<text text-anchor="middle" x="160.5" y="-26.5" font-family="Times,serif" font-size="10.00">Género Ejemplo</text>
</g>
<!-- n5&#45;&gt;n15 -->
<g id="edge14" class="edge">
<title>n5&#45;&gt;n15</title>
<path fill="none" stroke="black" d="M209.76,-141.67C201.66,-126.43 189.88,-104.27 179.87,-85.44"/>
<polygon fill="black" stroke="black" points="182.91,-83.7 175.12,-76.51 176.73,-86.98 182.91,-83.7"/>
</g>
<!-- n16 -->
<g id="node16" class="node">
<title>n16</title>
<polygon fill="none" stroke="black" points="228,-10 228,-86 327,-86 327,-10 228,-10"/>
<text text-anchor="middle" x="277.5" y="-74" font-family="Times,serif" font-size="10.00">Género Ejemplo</text>
<polyline fill="none" stroke="black" points="228,-67 327,-67 "/>
<text text-anchor="middle" x="277.5" y="-55" font-family="Times,serif" font-size="10.00">Género Ejemplo</text>
<polyline fill="none" stroke="black" points="228,-48 327,-48 "/>
<text text-anchor="middle" x="277.5" y="-36" font-family="Times,serif" font-size="10.00">Género Ejemplo</text>
<polyline fill="none" stroke="black" points="228,-29 327,-29 "/>
<text text-anchor="middle" x="277.5" y="-17" font-family="Times,serif" font-size="10.00">Género Ejemplo</text>
</g>
<!-- n5&#45;&gt;n16 -->
<g id="edge15" class="edge">
<title>n5&#45;&gt;n16</title>
<path fill="none" stroke="black" d="M229.08,-141.67C235.7,-128.99 244.83,-111.53 253.37,-95.17"/>
<polygon fill="black" stroke="black" points="256.51,-96.73 258.04,-86.24 250.31,-93.48 256.51,-96.73"/>
</g>
<!-- n17 -->
<g id="node17" class="node">
<title>n17</title>
<polygon fill="none" stroke="black" points="345,-19.5 345,-76.5 444,-76.5 444,-19.5 345,-19.5"/>
<text text-anchor="middle" x="394.5" y="-64.5" font-family="Times,serif" font-size="10.00">Género Ejemplo</text>
<polyline fill="none" stroke="black" points="345,-57.5 444,-57.5 "/>
<text text-anchor="middle" x="394.5" y="-45.5" font-family="Times,serif" font-size="10.00">Género Ejemplo</text>
<polyline fill="none" stroke="black" points="345,-38.5 444,-38.5 "/>
<text text-anchor="middle" x="394.5" y="-26.5" font-family="Times,serif" font-size="10.00">Género Ejemplo</text>
</g>
<!-- n6&#45;&gt;n17 -->
<g id="edge16" class="edge">
<title>n6&#45;&gt;n17</title>
<path fill="none" stroke="black" d="M533.07,-141.93C509.35,-129.95 478.37,-113.28 452.5,-96 446.5,-91.99 440.36,-87.5 434.44,-82.93"/>
<polygon fill="black" stroke="black" points="436.54,-80.13 426.52,-76.69 432.2,-85.63 436.54,-80.13"/>
</g>
<!-- n18 -->
<g id="node18" class="node">
<title>n18</title>
<polygon fill="none" stroke="black" points="462,-19.5 462,-76.5 561,-76.5 561,-19.5 462,-19.5"/>
<text text-anchor="middle" x="511.5" y="-64.5" font-family="Times,serif" font-size="10.00">Género Ejemplo</text>
<polyline fill="none" stroke="black" points="462,-57.5 561,-57.5 "/>
<text text-anchor="middle" x="511.5" y="-45.5" font-family="Times,serif" font-size="10.00">Género Ejemplo</text>
<polyline fill="none" stroke="black" points="462,-38.5 561,-38.5 "/>
<text text-anchor="middle" x="511.5" y="-26.5" font-family="Times,serif" font-size="10.00">Género Ejemplo</text>
</g>
<!-- n6&#45;&gt;n18 -->
<g id="edge17" class="edge">
<title>n6&#45;&gt;n18</title>
<path fill="none" stroke="black" d="M560.76,-141.67C552.66,-126.43 540.88,-104.27 530.87,-85.44"/>
<polygon fill="black" stroke="black" points="533.91,-83.7 526.12,-76.51 527.73,-86.98 533.91,-83.7"/>
</g>
<!-- n19 -->
<g id="node19" class="node">
<title>n19</title>
<polygon fill="none" stroke="black" points="579,-10 579,-86 678,-86 678,-10 579,-10"/>
<text text-anchor="middle" x="628.5" y="-74" font-family="Times,serif" font-size="10.00">Género Ejemplo</text>
<polyline fill="none" stroke="black" points="579,-67 678,-67 "/>
<text text-anchor="middle" x="628.5" y="-55" font-family="Times,serif" font-size="10.00">Género Ejemplo</text>
<polyline fill="none" stroke="black" points="579,-48 678,-48 "/>
<text text-anchor="middle" x="628.5" y="-36" font-family="Times,serif" font-size="10.00">Género Ejemplo</text>
<polyline fill="none" stroke="black" points="579,-29 678,-29 "/>
<text text-anchor="middle" x="628.5" y="-17" font-family="Times,serif" font-size="10.00">Género Ejemplo</text>
</g>
<!-- n6&#45;&gt;n19 -->
<g id="edge18" class="edge">
<title>n6&#45;&gt;n19</title>
<path fill="none" stroke="black" d="M580.08,-141.67C586.7,-128.99 595.83,-111.53 604.37,-95.17"/>
<polygon fill="black" stroke="black" points="607.51,-96.73 609.04,-86.24 601.31,-93.48 607.51,-96.73"/>
</g>
<!-- n20 -->
<g id="node20" class="node">
<title>n20</title>
<polygon fill="none" stroke="black" points="696,-19.5 696,-76.5 795,-76.5 795,-19.5 696,-19.5"/>
<text text-anchor="middle" x="745.5" y="-64.5" font-family="Times,serif" font-size="10.00">Género Ejemplo</text>
<polyline fill="none" stroke="black" points="696,-57.5 795,-57.5 "/>
<text text-anchor="middle" x="745.5" y="-45.5" font-family="Times,serif" font-size="10.00">Género Ejemplo</text>
<polyline fill="none" stroke="black" points="696,-38.5 795,-38.5 "/>
<text text-anchor="middle" x="745.5" y="-26.5" font-family="Times,serif" font-size="10.00">Género Ejemplo</text>
</g>
<!-- n7&#45;&gt;n20 -->
<g id="edge19" class="edge">
<title>n7&#45;&gt;n20</title>
<path fill="none" stroke="black" d="M794.76,-141.67C786.66,-126.43 774.88,-104.27 764.87,-85.44"/>
<polygon fill="black" stroke="black" points="767.91,-83.7 760.12,-76.51 761.73,-86.98 767.91,-83.7"/>
</g>
<!-- n21 -->
<g id="node21" class="node">
<title>n21</title>
<polygon fill="none" stroke="black" points="813,-19.5 813,-76.5 912,-76.5 912,-19.5 813,-19.5"/>
<text text-anchor="middle" x="862.5" y="-64.5" font-family="Times,serif" font-size="10.00">Género Ejemplo</text>
<polyline fill="none" stroke="black" points="813,-57.5 912,-57.5 "/>
<text text-anchor="middle" x="862.5" y="-45.5" font-family="Times,serif" font-size="10.00">Género Ejemplo</text>
<polyline fill="none" stroke="black" points="813,-38.5 912,-38.5 "/>
<text text-anchor="middle" x="862.5" y="-26.5" font-family="Times,serif" font-size="10.00">Género Ejemplo</text>
</g>
<!-- n7&#45;&gt;n21 -->
<g id="edge20" class="edge">
<title>n7&#45;&gt;n21</title>
<path fill="none" stroke="black" d="M814.08,-141.67C822.04,-126.43 833.62,-104.27 843.46,-85.44"/>
<polygon fill="black" stroke="black" points="846.6,-86.99 848.13,-76.51 840.39,-83.75 846.6,-86.99"/>
</g>
<!-- n22 -->
<g id="node22" class="node">
<title>n22</title>
<polygon fill="none" stroke="black" points="930,-0.5 930,-95.5 1029,-95.5 1029,-0.5 930,-0.5"/>
<text text-anchor="middle" x="979.5" y="-83.5" font-family="Times,serif" font-size="10.00">Género Ejemplo</text>
<polyline fill="none" stroke="black" points="930,-76.5 1029,-76.5 "/>
<text text-anchor="middle" x="979.5" y="-64.5" font-family="Times,serif" font-size="10.00">Género Ejemplo</text>
<polyline fill="none" stroke="black" points="930,-57.5 1029,-57.5 "/>
<text text-anchor="middle" x="979.5" y="-45.5" font-family="Times,serif" font-size="10.00">Género Ejemplo</text>
<polyline fill="none" stroke="black" points="930,-38.5 1029,-38.5 "/>
<text text-anchor="middle" x="979.5" y="-26.5" font-family="Times,serif" font-size="10.00">Género Ejemplo</text>
<polyline fill="none" stroke="black" points="930,-19.5 1029,-19.5 "/>
<text text-anchor="middle" x="979.5" y="-7.5" font-family="Times,serif" font-size="10.00">Género Ejemplo</text>
</g>
<!-- n7&#45;&gt;n22 -->
<g id="edge21" class="edge">
<title>n7&#45;&gt;n22</title>
<path fill="none" stroke="black" d="M840.96,-141.9C864.28,-129.84 894.86,-113.11 920.5,-96 920.79,-95.81 921.07,-95.62 921.36,-95.42"/>
<polygon fill="black" stroke="black" points="923.52,-98.18 929.72,-89.59 919.52,-92.44 923.52,-98.18"/>
</g>
<!-- n23 -->
<g id="node23" class="node">
<title>n23</title>
<polygon fill="none" stroke="black" points="1047,-19.5 1047,-76.5 1146,-76.5 1146,-19.5 1047,-19.5"/>
<text text-anchor="middle" x="1096.5" y="-64.5" font-family="Times,serif" font-size="10.00">Género Ejemplo</text>
<polyline fill="none" stroke="black" points="1047,-57.5 1146,-57.5 "/>
<text text-anchor="middle" x="1096.5" y="-45.5" font-family="Times,serif" font-size="10.00">Género Ejemplo</text>
<polyline fill="none" stroke="black" points="1047,-38.5 1146,-38.5 "/>
<text text-anchor="middle" x="1096.5" y="-26.5" font-family="Times,serif" font-size="10.00">Género Ejemplo</text>
</g>
<!-- n8&#45;&gt;n23 -->
<g id="edge22" class="edge">
<title>n8&#45;&gt;n23</title>
<path fill="none" stroke="black" d="M1234.4,-141.89C1210.88,-129.88 1180.17,-113.22 1154.5,-96 1148.51,-91.98 1142.38,-87.48 1136.45,-82.91"/>
<polygon fill="black" stroke="black" points="1138.55,-80.11 1128.53,-76.66 1134.22,-85.61 1138.55,-80.11"/>
</g>
<!-- n24 -->
<g id="node24" class="node">
<title>n24</title>
<polygon fill="none" stroke="black" points="1164,-19.5 1164,-76.5 1263,-76.5 1263,-19.5 1164,-19.5"/>
<text text-anchor="middle" x="1213.5" y="-64.5" font-family="Times,serif" font-size="10.00">Género Ejemplo</text>
<polyline fill="none" stroke="black" points="1164,-57.5 1263,-57.5 "/>
<text text-anchor="middle" x="1213.5" y="-45.5" font-family="Times,serif" font-size="10.00">Género Ejemplo</text>
<polyline fill="none" stroke="black" points="1164,-38.5 1263,-38.5 "/>
<text text-anchor="middle" x="1213.5" y="-26.5" font-family="Times,serif" font-size="10.00">Género Ejemplo</text>
</g>
<!-- n8&#45;&gt;n24 -->
<g id="edge23" class="edge">
<title>n8&#45;&gt;n24</title>
<path fill="none" stroke="black" d="M1261.92,-141.67C1253.96,-126.43 1242.38,-104.27 1232.54,-85.44"/>
<polygon fill="black" stroke="black" points="1235.61,-83.75 1227.87,-76.51 1229.4,-86.99 1235.61,-83.75"/>
</g>
<!-- n25 -->
<g id="node25" class="node">
<title>n25</title>
<polygon fill="none" stroke="black" points="1281,-10 1281,-86 1380,-86 1380,-10 1281,-10"/>
<text text-anchor="middle" x="1330.5" y="-74" font-family="Times,serif" font-size="10.00">Género Ejemplo</text>
<polyline fill="none" stroke="black" points="1281,-67 1380,-67 "/>
<text text-anchor="middle" x="1330.5" y="-55" font-family="Times,serif" font-size="10.00">Género Ejemplo</text>
<polyline fill="none" stroke="black" points="1281,-48 1380,-48 "/>
<text text-anchor="middle" x="1330.5" y="-36" font-family="Times,serif" font-size="10.00">Género Ejemplo</text>
<polyline fill="none" stroke="black" points="1281,-29 1380,-29 "/>
<text text-anchor="middle" x="1330.5" y="-17" font-family="Times,serif" font-size="10.00">Género Ejemplo</text>
</g>
<!-- n8&#45;&gt;n25 -->
<g id="edge24" class="edge">
<title>n8&#45;&gt;n25</title>
<path fill="none" stroke="black" d="M1281.24,-141.67C1287.98,-128.99 1297.26,-111.53 1305.96,-95.17"/>
<polygon fill="black" stroke="black" points="1309.1,-96.71 1310.71,-86.24 1302.92,-93.43 1309.1,-96.71"/>
</g>
<!-- n26 -->
<g id="node26" class="node">
<title>n26</title>
<polygon fill="none" stroke="black" points="1398,-19.5 1398,-76.5 1497,-76.5 1497,-19.5 1398,-19.5"/>
<text text-anchor="middle" x="1447.5" y="-64.5" font-family="Times,serif" font-size="10.00">Género Ejemplo</text>
<polyline fill="none" stroke="black" points="1398,-57.5 1497,-57.5 "/>
<text text-anchor="middle" x="1447.5" y="-45.5" font-family="Times,serif" font-size="10.00">Género Ejemplo</text>
<polyline fill="none" stroke="black" points="1398,-38.5 1497,-38.5 "/>
<text text-anchor="middle" x="1447.5" y="-26.5" font-family="Times,serif" font-size="10.00">Género Ejemplo</text>
</g>
<!-- n9&#45;&gt;n26 -->
<g id="edge25" class="edge">
<title>n9&#45;&gt;n26</title>
<path fill="none" stroke="black" d="M1545.44,-141.92C1528.83,-126.16 1504.28,-102.87 1483.92,-83.55"/>
<polygon fill="black" stroke="black" points="1486.29,-80.98 1476.63,-76.63 1481.47,-86.06 1486.29,-80.98"/>
</g>
<!-- n27 -->
<g id="node27" class="node">
<title>n27</title>
<polygon fill="none" stroke="black" points="1515,-19.5 1515,-76.5 1614,-76.5 1614,-19.5 1515,-19.5"/>
<text text-anchor="middle" x="1564.5" y="-64.5" font-family="Times,serif" font-size="10.00">Género Ejemplo</text>
<polyline fill="none" stroke="black" points="1515,-57.5 1614,-57.5 "/>
<text text-anchor="middle" x="1564.5" y="-45.5" font-family="Times,serif" font-size="10.00">Género Ejemplo</text>
<polyline fill="none" stroke="black" points="1515,-38.5 1614,-38.5 "/>
<text text-anchor="middle" x="1564.5" y="-26.5" font-family="Times,serif" font-size="10.00">Género Ejemplo</text>
</g>
<!-- n9&#45;&gt;n27 -->
<g id="edge26" class="edge">
<title>n9&#45;&gt;n27</title>
<path fill="none" stroke="black" d="M1564.5,-141.67C1564.5,-126.78 1564.5,-105.27 1564.5,-86.73"/>
<polygon fill="black" stroke="black" points="1568,-86.51 1564.5,-76.51 1561,-86.51 1568,-86.51"/>
</g>
<!-- n28 -->
<g id="node28" class="node">
<title>n28</title>
<polygon fill="none" stroke="black" points="1632,-10 1632,-86 1731,-86 1731,-10 1632,-10"/>
<text text-anchor="middle" x="1681.5" y="-74" font-family="Times,serif" font-size="10.00">Género Ejemplo</text>
<polyline fill="none" stroke="black" points="1632,-67 1731,-67 "/>
<text text-anchor="middle" x="1681.5" y="-55" font-family="Times,serif" font-size="10.00">Género Ejemplo</text>
<polyline fill="none" stroke="black" points="1632,-48 1731,-48 "/>
<text text-anchor="middle" x="1681.5" y="-36" font-family="Times,serif" font-size="10.00">Género Ejemplo</text>
<polyline fill="none" stroke="black" points="1632,-29 1731,-29 "/>
<text text-anchor="middle" x="1681.5" y="-17" font-family="Times,serif" font-size="10.00">Género Ejemplo</text>
</g>
<!-- n9&#45;&gt;n28 -->
<g id="edge27" class="edge">
<title>n9&#45;&gt;n28</title>
<path fill="none" stroke="black" d="M1583.56,-141.92C1597.38,-128.8 1616.71,-110.47 1634.54,-93.55"/>
<polygon fill="black" stroke="black" points="1637.23,-95.82 1642.08,-86.4 1632.41,-90.75 1637.23,-95.82"/>
</g>
<!-- n29 -->
<g id="node29" class="node">
<title>n29</title>
<polygon fill="none" stroke="black" points="1749,-19.5 1749,-76.5 1848,-76.5 1848,-19.5 1749,-19.5"/>
<text text-anchor="middle" x="1798.5" y="-64.5" font-family="Times,serif" font-size="10.00">Género Ejemplo</text>
<polyline fill="none" stroke="black" points="1749,-57.5 1848,-57.5 "/>
<text text-anchor="middle" x="1798.5" y="-45.5" font-family="Times,serif" font-size="10.00">Género Ejemplo</text>
<polyline fill="none" stroke="black" points="1749,-38.5 1848,-38.5 "/>
<text text-anchor="middle" x="1798.5" y="-26.5" font-family="Times,serif" font-size="10.00">Género Ejemplo</text>
</g>
<!-- n10&#45;&gt;n29 -->
<g id="edge28" class="edge">
<title>n10&#45;&gt;n29</title>
<path fill="none" stroke="black" d="M1846.92,-141.67C1838.96,-126.43 1827.38,-104.27 1817.54,-85.44"/>
<polygon fill="black" stroke="black" points="1820.61,-83.75 1812.87,-76.51 1814.4,-86.99 1820.61,-83.75"/>
</g>
<!-- n30 -->
<g id="node30" class="node">
<title>n30</title>
<polygon fill="none" stroke="black" points="1866,-19.5 1866,-76.5 1965,-76.5 1965,-19.5 1866,-19.5"/>
<text text-anchor="middle" x="1915.5" y="-64.5" font-family="Times,serif" font-size="10.00">Género Ejemplo</text>
<polyline fill="none" stroke="black" points="1866,-57.5 1965,-57.5 "/>
<text text-anchor="middle" x="1915.5" y="-45.5" font-family="Times,serif" font-size="10.00">Género Ejemplo</text>
<polyline fill="none" stroke="black" points="1866,-38.5 1965,-38.5 "/>
<text text-anchor="middle" x="1915.5" y="-26.5" font-family="Times,serif" font-size="10.00">Género Ejemplo</text>
</g>
<!-- n10&#45;&gt;n30 -->
<g id="edge29" class="edge">
<title>n10&#45;&gt;n30</title>
<path fill="none" stroke="black" d="M1866.24,-141.67C1874.34,-126.43 1886.12,-104.27 1896.13,-85.44"/>
<polygon fill="black" stroke="black" points="1899.27,-86.98 1900.88,-76.51 1893.09,-83.7 1899.27,-86.98"/>
</g>
<!-- n31 -->
<g id="node31" class="node">
<title>n31</title>
<polygon fill="none" stroke="black" points="1983,-0.5 1983,-95.5 2082,-95.5 2082,-0.5 1983,-0.5"/>
<text text-anchor="middle" x="2032.5" y="-83.5" font-family="Times,serif" font-size="10.00">Género Ejemplo</text>
<polyline fill="none" stroke="black" points="1983,-76.5 2082,-76.5 "/>
<text text-anchor="middle" x="2032.5" y="-64.5" font-family="Times,serif" font-size="10.00">Género Ejemplo</text>
<polyline fill="none" stroke="black" points="1983,-57.5 2082,-57.5 "/>
<text text-anchor="middle" x="2032.5" y="-45.5" font-family="Times,serif" font-size="10.00">Género Ejemplo</text>
<polyline fill="none" stroke="black" points="1983,-38.5 2082,-38.5 "/>
<text text-anchor="middle" x="2032.5" y="-26.5" font-family="Times,serif" font-size="10.00">Género Ejemplo</text>
<polyline fill="none" stroke="black" points="1983,-19.5 2082,-19.5 "/>
<text text-anchor="middle" x="2032.5" y="-7.5" font-family="Times,serif" font-size="10.00">Género Ejemplo</text>
</g>
<!-- n10&#45;&gt;n31 -->
<g id="edge30" class="edge">
<title>n10&#45;&gt;n31</title>
<path fill="none" stroke="black" d="M1893.29,-141.95C1916.82,-129.9 1947.66,-113.17 1973.5,-96 1973.79,-95.81 1974.07,-95.62 1974.36,-95.43"/>
<polygon fill="black" stroke="black" points="1976.52,-98.19 1982.73,-89.61 1972.52,-92.44 1976.52,-98.19"/>
</g>
<!-- n32 -->
<g id="node32" class="node">
<title>n32</title>
<polygon fill="none" stroke="black" points="2100,-19.5 2100,-76.5 2199,-76.5 2199,-19.5 2100,-19.5"/>
<text text-anchor="middle" x="2149.5" y="-64.5" font-family="Times,serif" font-size="10.00">Género Ejemplo</text>
<polyline fill="none" stroke="black" points="2100,-57.5 2199,-57.5 "/>
<text text-anchor="middle" x="2149.5" y="-45.5" font-family="Times,serif" font-size="10.00">Género Ejemplo</text>
<polyline fill="none" stroke="black" points="2100,-38.5 2199,-38.5 "/>
<text text-anchor="middle" x="2149.5" y="-26.5" font-family="Times,serif" font-size="10.00">Género Ejemplo</text>
</g>
<!-- n11&#45;&gt;n32 -->
<g id="edge31" class="edge">
<title>n11&#45;&gt;n32</title>
<path fill="none" stroke="black" d="M2287.4,-141.89C2263.88,-129.88 2233.17,-113.22 2207.5,-96 2201.51,-91.98 2195.38,-87.48 2189.45,-82.91"/>
<polygon fill="black" stroke="black" points="2191.55,-80.11 2181.53,-76.66 2187.22,-85.61 2191.55,-80.11"/>
</g>
<!-- n33 -->
<g id="node33" class="node">
<title>n33</title>
<polygon fill="none" stroke="black" points="2217,-19.5 2217,-76.5 2316,-76.5 2316,-19.5 2217,-19.5"/>
<text text-anchor="middle" x="2266.5" y="-64.5" font-family="Times,serif" font-size="10.00">Género Ejemplo</text>
<polyline fill="none" stroke="black" points="2217,-57.5 2316,-57.5 "/>
<text text-anchor="middle" x="2266.5" y="-45.5" font-family="Times,serif" font-size="10.00">Género Ejemplo</text>
<polyline fill="none" stroke="black" points="2217,-38.5 2316,-38.5 "/>
<text text-anchor="middle" x="2266.5" y="-26.5" font-family="Times,serif" font-size="10.00">Género Ejemplo</text>
</g>
<!-- n11&#45;&gt;n33 -->
<g id="edge32" class="edge">
<title>n11&#45;&gt;n33</title>
<path fill="none" stroke="black" d="M2314.92,-141.67C2306.96,-126.43 2295.38,-104.27 2285.54,-85.44"/>
<polygon fill="black" stroke="black" points="2288.61,-83.75 2280.87,-76.51 2282.4,-86.99 2288.61,-83.75"/>
</g>
<!-- n34 -->
<g id="node34" class="node">
<title>n34</title>
<polygon fill="none" stroke="black" points="2334,-10 2334,-86 2433,-86 2433,-10 2334,-10"/>
<text text-anchor="middle" x="2383.5" y="-74" font-family="Times,serif" font-size="10.00">Género Ejemplo</text>
<polyline fill="none" stroke="black" points="2334,-67 2433,-67 "/>
<text text-anchor="middle" x="2383.5" y="-55" font-family="Times,serif" font-size="10.00">Género Ejemplo</text>
<polyline fill="none" stroke="black" points="2334,-48 2433,-48 "/>
<text text-anchor="middle" x="2383.5" y="-36" font-family="Times,serif" font-size="10.00">Género Ejemplo</text>
<polyline fill="none" stroke="black" points="2334,-29 2433,-29 "/>
<text text-anchor="middle" x="2383.5" y="-17" font-family="Times,serif" font-size="10.00">Género Ejemplo</text>
</g>
<!-- n11&#45;&gt;n34 -->
<g id="edge33" class="edge">
<title>n11&#45;&gt;n34</title>
<path fill="none" stroke="black" d="M2334.24,-141.67C2340.98,-128.99 2350.26,-111.53 2358.96,-95.17"/>
<polygon fill="black" stroke="black" points="2362.1,-96.71 2363.71,-86.24 2355.92,-93.43 2362.1,-96.71"/>
</g>
<!-- n35 -->
<g id="node35" class="node">
<title>n35</title>
<polygon fill="none" stroke="black" points="2451,-19.5 2451,-76.5 2550,-76.5 2550,-19.5 2451,-19.5"/>
<text text-anchor="middle" x="2500.5" y="-64.5" font-family="Times,serif" font-size="10.00">Género Ejemplo</text>
<polyline fill="none" stroke="black" points="2451,-57.5 2550,-57.5 "/>
<text text-anchor="middle" x="2500.5" y="-45.5" font-family="Times,serif" font-size="10.00">Género Ejemplo</text>
<polyline fill="none" stroke="black" points="2451,-38.5 2550,-38.5 "/>
<text text-anchor="middle" x="2500.5" y="-26.5" font-family="Times,serif" font-size="10.00">Género Ejemplo</text>
</g>
<!-- n12&#45;&gt;n35 -->
<g id="edge34" class="edge">
<title>n12&#45;&gt;n35</title>
<path fill="none" stroke="black" d="M2548.92,-141.67C2540.96,-126.43 2529.38,-104.27 2519.54,-85.44"/>
<polygon fill="black" stroke="black" points="2522.61,-83.75 2514.87,-76.51 2516.4,-86.99 2522.61,-83.75"/>
</g>
<!-- n36 -->
<g id="node36" class="node">
<title>n36</title>
<polygon fill="none" stroke="black" points="2568,-19.5 2568,-76.5 2667,-76.5 2667,-19.5 2568,-19.5"/>
<text text-anchor="middle" x="2617.5" y="-64.5" font-family="Times,serif" font-size="10.00">Género Ejemplo</text>
<polyline fill="none" stroke="black" points="2568,-57.5 2667,-57.5 "/>
<text text-anchor="middle" x="2617.5" y="-45.5" font-family="Times,serif" font-size="10.00">Género Ejemplo</text>
<polyline fill="none" stroke="black" points="2568,-38.5 2667,-38.5 "/>
<text text-anchor="middle" x="2617.5" y="-26.5" font-family="Times,serif" font-size="10.00">Género Ejemplo</text>
</g>
<!-- n12&#45;&gt;n36 -->
<g id="edge35" class="edge">
<title>n12&#45;&gt;n36</title>
<path fill="none" stroke="black" d="M2568.24,-141.67C2576.34,-126.43 2588.12,-104.27 2598.13,-85.44"/>
<polygon fill="black" stroke="black" points="2601.27,-86.98 2602.88,-76.51 2595.09,-83.7 2601.27,-86.98"/>
</g>
<!-- n37 -->
<g id="node37" class="node">
<title>n37</title>
<polygon fill="none" stroke="black" points="2685,-10 2685,-86 2784,-86 2784,-10 2685,-10"/>
<text text-anchor="middle" x="2734.5" y="-74" font-family="Times,serif" font-size="10.00">Género Ejemplo</text>
<polyline fill="none" stroke="black" points="2685,-67 2784,-67 "/>
<text text-anchor="middle" x="2734.5" y="-55" font-family="Times,serif" font-size="10.00">Género Ejemplo</text>
<polyline fill="none" stroke="black" points="2685,-48 2784,-48 "/>
<text text-anchor="middle" x="2734.5" y="-36" font-family="Times,serif" font-size="10.00">Género Ejemplo</text>
<polyline fill="none" stroke="black" points="2685,-29 2784,-29 "/>
<text text-anchor="middle" x="2734.5" y="-17" font-family="Times,serif" font-size="10.00">Género Ejemplo</text>
</g>
<!-- n12&#45;&gt;n37 -->
<g id="edge36" class="edge">
<title>n12&#45;&gt;n37</title>
<path fill="none" stroke="black" d="M2595.29,-141.95C2618.82,-129.9 2649.66,-113.17 2675.5,-96 2677.36,-94.76 2679.24,-93.48 2681.11,-92.17"/>
<polygon fill="black" stroke="black" points="2683.28,-94.92 2689.35,-86.24 2679.19,-89.24 2683.28,-94.92"/>
</g>
<!-- n38 -->
<g id="node38" class="node">
<title>n38</title>
<polygon fill="none" stroke="black" points="2802,-19.5 2802,-76.5 2901,-76.5 2901,-19.5 2802,-19.5"/>
<text text-anchor="middle" x="2851.5" y="-64.5" font-family="Times,serif" font-size="10.00">Género Ejemplo</text>
<polyline fill="none" stroke="black" points="2802,-57.5 2901,-57.5 "/>
<text text-anchor="middle" x="2851.5" y="-45.5" font-family="Times,serif" font-size="10.00">Género Ejemplo</text>
<polyline fill="none" stroke="black" points="2802,-38.5 2901,-38.5 "/>
<text text-anchor="middle" x="2851.5" y="-26.5" font-family="Times,serif" font-size="10.00">Género Ejemplo</text>
</g>
<!-- n13&#45;&gt;n38 -->
<g id="edge37" class="edge">
<title>n13&#45;&gt;n38</title>
<path fill="none" stroke="black" d="M2939.28,-132.28C2923.78,-117.58 2904.59,-99.37 2888.11,-83.74"/>
<polygon fill="black" stroke="black" points="2890.42,-81.1 2880.76,-76.75 2885.6,-86.18 2890.42,-81.1"/>
</g>
<!-- n39 -->
<g id="node39" class="node">
<title>n39</title>
<polygon fill="none" stroke="black" points="2919,-19.5 2919,-76.5 3018,-76.5 3018,-19.5 2919,-19.5"/>
<text text-anchor="middle" x="2968.5" y="-64.5" font-family="Times,serif" font-size="10.00">Género Ejemplo</text>
<polyline fill="none" stroke="black" points="2919,-57.5 3018,-57.5 "/>
<text text-anchor="middle" x="2968.5" y="-45.5" font-family="Times,serif" font-size="10.00">Género Ejemplo</text>
<polyline fill="none" stroke="black" points="2919,-38.5 3018,-38.5 "/>
<text text-anchor="middle" x="2968.5" y="-26.5" font-family="Times,serif" font-size="10.00">Género Ejemplo</text>
</g>
<!-- n13&#45;&gt;n39 -->
<g id="edge38" class="edge">
<title>n13&#45;&gt;n39</title>
<path fill="none" stroke="black" d="M2968.5,-132.28C2968.5,-118.63 2968.5,-101.98 2968.5,-87.15"/>
<polygon fill="black" stroke="black" points="2972,-86.75 2968.5,-76.75 2965,-86.75 2972,-86.75"/>
</g>
<!-- n40 -->
<g id="node40" class="node">
<title>n40</title>
<polygon fill="none" stroke="black" points="3036,-29 3036,-67 3135,-67 3135,-29 3036,-29"/>
<text text-anchor="middle" x="3085.5" y="-55" font-family="Times,serif" font-size="10.00">Género Ejemplo</text>
<polyline fill="none" stroke="black" points="3036,-48 3135,-48 "/>
<text text-anchor="middle" x="3085.5" y="-36" font-family="Times,serif" font-size="10.00">Género Ejemplo</text>
</g>
<!-- n13&#45;&gt;n40 -->
<g id="edge39" class="edge">
<title>n13&#45;&gt;n40</title>
<path fill="none" stroke="black" d="M2997.72,-132.28C3016.56,-114.41 3040.84,-91.37 3059.09,-74.05"/>
<polygon fill="black" stroke="black" points="3061.67,-76.43 3066.51,-67.01 3056.85,-71.36 3061.67,-76.43"/>
</g>
<!-- n41 -->
<g id="node41" class="node">
<title>n41</title>
<polygon fill="none" stroke="black" points="3153.5,-19.5 3153.5,-76.5 3257.5,-76.5 3257.5,-19.5 3153.5,-19.5"/>
<text text-anchor="middle" x="3205.5" y="-64.5" font-family="Times,serif" font-size="10.00">Realismo Mágico</text>
<polyline fill="none" stroke="black" points="3153.5,-57.5 3257.5,-57.5 "/>
<text text-anchor="middle" x="3205.5" y="-45.5" font-family="Times,serif" font-size="10.00">Romántica</text>
<polyline fill="none" stroke="black" points="3153.5,-38.5 3257.5,-38.5 "/>
<text text-anchor="middle" x="3205.5" y="-26.5" font-family="Times,serif" font-size="10.00">Épica</text>
</g>
<!-- n13&#45;&gt;n41 -->
<g id="edge40" class="edge">
<title>n13&#45;&gt;n41</title>
<path fill="none" stroke="black" d="M3024.7,-144.42C3060.24,-133.42 3106.46,-116.91 3144.5,-96 3151.5,-92.15 3158.56,-87.54 3165.26,-82.73"/>
<polygon fill="black" stroke="black" points="3167.61,-85.35 3173.54,-76.57 3163.43,-79.73 3167.61,-85.35"/>
</g>
</g>
</svg>
